<svg width="31" height="31" viewBox="0 0 31 31" fill="none" xmlns="http://www.w3.org/2000/svg">
<mask id="mask0_7_537" style="mask-type:luminance" maskUnits="userSpaceOnUse" x="0" y="0" width="31" height="31">
<path d="M0 0H31V31H0V0Z" fill="white"/>
</mask>
<g mask="url(#mask0_7_537)">
<path d="M15.4867 0.00738525C6.94275 0.00738525 -0.0088501 6.95898 -0.0088501 15.5044C-0.0088501 24.0484 6.94275 31 15.4867 31C24.0321 31 30.9837 24.0484 30.9837 15.5044C30.9837 6.95898 24.0321 0.00738525 15.4867 0.00738525ZM15.4867 29.4713C7.78559 29.4713 1.51982 23.2055 1.51982 15.5044C1.51982 7.80182 7.78559 1.53606 15.4867 1.53606C23.1893 1.53606 29.4551 7.80182 29.4551 15.5044C29.4551 23.2055 23.1893 29.4713 15.4867 29.4713Z" fill="#FFF6EC"/>
</g>
<path d="M20.6293 6.19995H11.5393C10.7751 6.19995 10.1299 6.7188 9.91998 7.42918H18.4628C19.9268 7.42918 21.1178 8.64554 21.1178 10.1406V22.32C21.8133 22.1056 22.32 21.4466 22.32 20.6662V7.92801C22.3214 6.97465 21.5642 6.19995 20.6293 6.19995Z" fill="#FFF6EC"/>
<path d="M19.2311 8.67999H9.28887C8.26648 8.67999 7.44 9.44978 7.44 10.4003V23.0811C7.44 24.0302 8.26801 24.8 9.28887 24.8H19.2296C20.252 24.8 21.08 24.0302 21.08 23.0811V10.4003C21.08 9.44978 20.252 8.67999 19.2311 8.67999ZM18.997 21.6653H9.52151V20.6864H18.997V21.6653ZM18.997 19.3688H9.52151V18.3898H18.997V19.3688ZM18.997 17.1975H9.52151V16.2185H18.997V17.1975ZM18.997 15.0261H9.52151V14.0486H18.997V15.0261ZM18.997 12.8562H9.52151V11.8772H18.997V12.8562Z" fill="#FFF6EC"/>
</svg>
