<svg width="31" height="31" viewBox="0 0 31 31" fill="none" xmlns="http://www.w3.org/2000/svg">
<path d="M22.0176 12.5804L15.4274 7.03748C15.1904 6.83899 14.8453 6.83899 14.6083 7.03748L7.97217 12.6204C7.76776 12.7922 7.69221 13.0751 7.78405 13.3255C7.87589 13.5773 8.11437 13.7447 8.38248 13.7447H9.35123V21.1451C9.35123 21.9894 10.0356 22.6738 10.8784 22.6738H13.044V18.3425C13.044 18.0611 13.2722 17.833 13.5536 17.833H16.4835C16.7635 17.833 16.9931 18.0611 16.9931 18.3425V22.6738H19.1572C20.0016 22.6738 20.6859 21.9879 20.6859 21.1451V13.7447H21.6532C21.6561 13.7447 21.6576 13.7447 21.6591 13.7447C22.0116 13.7447 22.296 13.4603 22.296 13.1077C22.296 12.8885 22.1849 12.6959 22.0176 12.5804Z" fill="#402E32"/>
<mask id="mask0_7_536" style="mask-type:luminance" maskUnits="userSpaceOnUse" x="0" y="0" width="31" height="31">
<path d="M0 0H31V31H0V0Z" fill="white"/>
</mask>
<g mask="url(#mask0_7_536)">
<path d="M15.5032 30.991C6.95923 30.991 0.00762939 24.0394 0.00762939 15.4955C0.00762939 6.95004 6.95923 -0.0015564 15.5032 -0.0015564C24.0486 -0.0015564 31.0002 6.95004 31.0002 15.4955C31.0002 24.0394 24.0486 30.991 15.5032 30.991ZM15.5032 1.52711C7.80207 1.52711 1.5363 7.79288 1.5363 15.4955C1.5363 23.1966 7.80207 29.4624 15.5032 29.4624C23.2058 29.4624 29.4716 23.1966 29.4716 15.4955C29.4716 7.79288 23.2058 1.52711 15.5032 1.52711Z" fill="#402E32"/>
</g>
</svg>
