<svg width="31" height="31" viewBox="0 0 31 31" fill="none" xmlns="http://www.w3.org/2000/svg">
<mask id="mask0_7_538" style="mask-type:luminance" maskUnits="userSpaceOnUse" x="0" y="0" width="31" height="31">
<path d="M0 0H31V31H0V0Z" fill="white"/>
</mask>
<g mask="url(#mask0_7_538)">
<path d="M15.4869 30.9825C6.94271 30.9825 -0.00872803 24.0311 -0.00872803 15.4869C-0.00872803 6.94271 6.94271 -0.00872803 15.4869 -0.00872803C24.0311 -0.00872803 30.9825 6.94271 30.9825 15.4869C30.9825 24.0311 24.0311 30.9825 15.4869 30.9825ZM15.4869 1.52004C7.78491 1.52004 1.51858 7.78491 1.51858 15.4869C1.51858 23.1889 7.78491 29.4552 15.4869 29.4552C23.1875 29.4552 29.4538 23.1889 29.4538 15.4869C29.4538 7.78491 23.1875 1.52004 15.4869 1.52004Z" fill="#FFF6EC"/>
</g>
<path d="M21.4615 10.3333L21.46 9.78117C21.46 9.20863 20.8356 8.74359 20.0635 8.74359L10.0395 10.2621C9.86284 10.2621 9.69531 10.2892 9.53845 10.3333H21.4615Z" fill="#FFF6EC"/>
<path d="M19.3919 19.1075C18.6545 19.1075 18.0533 18.5351 18.0533 17.8315V15.3405C18.0533 14.6369 18.6545 14.0659 19.3919 14.0659H23.0513V13.2574C23.0513 12.5218 22.4225 11.9231 21.65 11.9231H9.35006C8.57749 11.9231 7.94873 12.5218 7.94873 13.2574V20.1258C7.94873 20.8614 8.57749 21.4616 9.35006 21.4616H21.65C22.4225 21.4616 23.0513 20.8614 23.0513 20.1258V19.1075H19.3919Z" fill="#FFF6EC"/>
<path d="M19.308 17.4872C19.1812 17.4872 19.0769 17.3969 19.0769 17.2846V15.3051C19.0769 15.194 19.1812 15.1025 19.308 15.1025H22.8201C22.9469 15.1025 23.0513 15.194 23.0513 15.3051V17.2846C23.0513 17.3969 22.9469 17.4872 22.8201 17.4872H19.308Z" fill="#FFF6EC"/>
</svg>
